<svg width="274" height="50" viewBox="0 0 274 50" fill="none" xmlns="http://www.w3.org/2000/svg">
<path d="M259.285 2C207.06 2 158.36 3.19902 107.011 6.5168C100.401 6.94388 70.4823 8.96827 61.9379 9.60724C49.5159 10.5362 52.693 10.5866 61.8364 10.5284C91.4208 10.3402 120.783 9.34653 150.257 8.65633C188.545 7.75972 227.786 6.51824 266.188 6.27907C281.041 6.18656 263.416 6.79122 257.661 7.22997C176.089 13.4481 96.1974 23.2078 19.6058 33.3798C9.18073 34.7644 -11.3795 37.7851 14.6315 36.2623C60.2361 33.5924 123.356 29.4514 169.412 27.5556M171.372 27.199C141.904 32.6046 109.403 36.4827 80.4138 42.1757C79.0607 42.4414 71.3506 43.8639 78.282 43.6021C97.8126 42.8644 118.146 39.8315 136.451 37.8966C151.962 36.257 166.976 34.9625 183.148 34.093C195.462 33.431 188.728 34.3035 180.305 35.5788C166.086 37.7317 151.423 39.6309 137.06 41.7003C130.351 42.6667 109.938 44.1673 117.163 44.7313C134.397 46.0765 151.252 41.3814 168.022 42.2351C172.206 42.4482 155.123 46.9342 153.302 48" stroke="black" stroke-width="3" stroke-linecap="round"/>
</svg>
